# xmcd CD database file
#
# Track frame offsets:
#	150
#	25945
#	44862
#	59568
#	83591
#	104179
#	127303
#	148445
#	181362
#	195549
#	224127
#	252630
#	280925
#	311446
#
# Disc length: 4638 seconds
#
# Revision: 9
# Processed by: cddbd v1.5.2PL0 Copyright (c) Steve Scherf et al.
# Submitted via: CDex 1.70beta2
#
DISCID=f1121c0e
DTITLE=Various Artist - Romantic Collection - Magic Blues (dts)
DYEAR=2005
DGENRE=Blues
TTITLE0=Little Blue - Gold Rain
TTITLE1=Bet Hard Band - Am I The One
TTITLE2=Rhithm Kings - Bad To Be Alone
TTITLE3=Smokin Joe Kubek - Walk On
TTITLE4=Robin Prover - Shining Through
TTITLE5=Glen Huges - So Much Love To Give
TTITLE6=The Robert Cray Band - Never Mattred Much
TTITLE7=Albert King - I'll Play The Blues For You
TTITLE8=Taj Mahal - Here In The Dark (Feat E. Clapton)
TTITLE9=Johny Winter - Life Is Hard
TTITLE10=Billy Boy Arnold and Tony McPhee - Blue And Lonesome
TTITLE11=Byther Smith - Play The Blues In Paris
TTITLE12=Jan Akkerman - Hane On You
TTITLE13=Eric Clapton - Double Trouble (Live)
EXTD=YEAR: 2005
EXTT0=
EXTT1=
EXTT2=
EXTT3=
EXTT4=
EXTT5=
EXTT6=
EXTT7=
EXTT8=
EXTT9=
EXTT10=
EXTT11=
EXTT12=
EXTT13=
PLAYORDER=
